<svg xmlns="http://www.w3.org/2000/svg" style="display: none;">

    <!--! Sign out -->
    <symbol viewBox="0 0 24 24" id="sign-out">
        <path
            d="M5 21q-.825 0-1.413-.588T3 19V5q0-.825.588-1.413T5 3h7v2H5v14h7v2H5Zm11-4l-1.375-1.45l2.55-2.55H9v-2h8.175l-2.55-2.55L16 7l5 5l-5 5Z">
        </path>
    </symbol>



    <!--! Upgrade to pro -->
    <symbol viewBox="0 0 24 24" id="crown">
        <path d="M5 16L3 5l5.5 5L12 4l3.5 6L21 5l-2 11H5m14 3c0 .6-.4 1-1 1H6c-.6 0-1-.4-1-1v-1h14v1Z"></path>
    </symbol>



    <!--! User feedback -->
    <symbol viewBox="0 0 16 16" id="feedback">
        <path
            d="M7.549 10.078c.46.182.88.424 1.258.725c.378.3.701.65.97 1.046a4.829 4.829 0 0 1 .848 2.714V15H9.75v-.438a3.894 3.894 0 0 0-1.155-2.782a4.054 4.054 0 0 0-1.251-.84a3.898 3.898 0 0 0-1.532-.315A3.894 3.894 0 0 0 3.03 11.78a4.06 4.06 0 0 0-.84 1.251c-.206.474-.31.985-.315 1.531V15H1v-.438a4.724 4.724 0 0 1 .848-2.713a4.918 4.918 0 0 1 2.229-1.77a2.994 2.994 0 0 1-.555-.493a3.156 3.156 0 0 1-.417-.602a2.942 2.942 0 0 1-.26-.683a3.345 3.345 0 0 1-.095-.739c0-.423.08-.82.24-1.189a3.095 3.095 0 0 1 1.626-1.627a3.067 3.067 0 0 1 2.386-.007a3.095 3.095 0 0 1 1.627 1.627a3.067 3.067 0 0 1 .157 1.928c-.06.237-.148.465-.266.684a3.506 3.506 0 0 1-.417.608c-.16.187-.345.35-.554.492zM5.812 9.75c.301 0 .584-.057.848-.17a2.194 2.194 0 0 0 1.162-1.163c.119-.269.178-.554.178-.854a2.138 2.138 0 0 0-.643-1.538a2.383 2.383 0 0 0-.697-.472a2.048 2.048 0 0 0-.848-.178c-.3 0-.583.057-.847.17a2.218 2.218 0 0 0-1.17 1.17c-.113.264-.17.547-.17.848c0 .3.057.583.17.847c.115.264.27.497.466.697a2.168 2.168 0 0 0 1.552.643zM15 1v7h-1.75l-2.625 2.625V8H9.75v-.875h1.75v1.388l1.388-1.388h1.237v-5.25h-8.75v1.572a7.255 7.255 0 0 0-.438.069a2.62 2.62 0 0 0-.437.123V1H15z">
        </path>
    </symbol>



    <!--! Light mode -->
    <symbol viewBox="0 0 24 24" id="sun">
        <path
            d="M11 5V1h2v4h-2Zm6.65 2.75l-1.375-1.375l2.8-2.875l1.4 1.425L17.65 7.75ZM19 13v-2h4v2h-4Zm-8 10v-4h2v4h-2ZM6.35 7.7L3.5 4.925l1.425-1.4L7.75 6.35L6.35 7.7Zm12.7 12.8l-2.775-2.875l1.35-1.35l2.85 2.75L19.05 20.5ZM1 13v-2h4v2H1Zm3.925 7.5l-1.4-1.425l2.8-2.8l.725.675l.725.7l-2.85 2.85ZM12 18q-2.5 0-4.25-1.75T6 12q0-2.5 1.75-4.25T12 6q2.5 0 4.25 1.75T18 12q0 2.5-1.75 4.25T12 18Z">
        </path>
    </symbol>



    <!--! Dark mode -->
    <symbol viewBox="0 0 24 24" id="moon">
        <path
            d="M12 21q-3.75 0-6.375-2.625T3 12q0-3.75 2.625-6.375T12 3q.35 0 .688.025t.662.075q-1.025.725-1.638 1.888T11.1 7.5q0 2.25 1.575 3.825T16.5 12.9q1.375 0 2.525-.613T20.9 10.65q.05.325.075.662T21 12q0 3.75-2.625 6.375T12 21Z">
        </path>

    </symbol>



    <!--! Export prompts and tags -->
    <symbol viewBox="0 0 24 24" id="download">
        <path
            d="M19.35 10.04A7.49 7.49 0 0 0 12 4C9.11 4 6.6 5.64 5.35 8.04A5.994 5.994 0 0 0 0 14c0 3.31 2.69 6 6 6h13c2.76 0 5-2.24 5-5c0-2.64-2.05-4.78-4.65-4.96zM17 13l-5 5l-5-5h3V9h4v4h3z">
        </path>
    </symbol>



    <!--! General prompt icon -->
    <symbol viewBox="0 0 24 24" id="lightbulb">
        <path
            d="M12 6a6 6 0 0 1 6 6c0 2.22-1.21 4.16-3 5.2V19a1 1 0 0 1-1 1h-4a1 1 0 0 1-1-1v-1.8c-1.79-1.04-3-2.98-3-5.2a6 6 0 0 1 6-6m2 15v1a1 1 0 0 1-1 1h-2a1 1 0 0 1-1-1v-1h4m6-10h3v2h-3v-2M1 11h3v2H1v-2M13 1v3h-2V1h2M4.92 3.5l2.13 2.14l-1.42 1.41L3.5 4.93L4.92 3.5m12.03 2.13l2.12-2.13l1.43 1.43l-2.13 2.12l-1.42-1.42Z">
        </path>
    </symbol>



    <!--! Create prompt or tag btn -->
    <symbol viewBox="0 0 24 24" id="add">
        <path d="M11 19v-6H5v-2h6V5h2v6h6v2h-6v6h-2Z"></path>
    </symbol>



    <!--! Scroll up btn -->
    <symbol viewBox="0 0 24 24" id="arrow-upward">
        <path d="M11 20V7.825l-5.6 5.6L4 12l8-8l8 8l-1.4 1.425l-5.6-5.6V20h-2Z"></path>
    </symbol>



    <!--! Close dialog btn -->
    <symbol viewBox="0 0 24 24" id="close">
        <path
            d="m8.4 17l3.6-3.6l3.6 3.6l1.4-1.4l-3.6-3.6L17 8.4L15.6 7L12 10.6L8.4 7L7 8.4l3.6 3.6L7 15.6L8.4 17Zm3.6 5q-2.075 0-3.9-.788t-3.175-2.137q-1.35-1.35-2.137-3.175T2 12q0-2.075.788-3.9t2.137-3.175q1.35-1.35 3.175-2.137T12 2q2.075 0 3.9.788t3.175 2.137q1.35 1.35 2.138 3.175T22 12q0 2.075-.788 3.9t-2.137 3.175q-1.35 1.35-3.175 2.138T12 22Z">
        </path>
    </symbol>



    <!--! Copy prompt btn -->
    <symbol viewBox="0 0 24 24" id="copy">
        <path
            d="M5 22q-.825 0-1.413-.588T3 20V6h2v14h11v2H5Zm4-4q-.825 0-1.413-.588T7 16V4q0-.825.588-1.413T9 2h9q.825 0 1.413.588T20 4v12q0 .825-.588 1.413T18 18H9Zm0-2h9V4H9v12Zm0 0V4v12Z">
        </path>
    </symbol>



    <!--! Delete prompt and tag btn -->
    <symbol viewBox="0 0 24 24" id="delete">
        <path
            d="M5.117 7.752a.75.75 0 0 1 .798.698l.46 6.9c.09 1.347.154 2.285.294 2.99c.137.685.327 1.047.6 1.303c.274.256.648.422 1.34.512c.714.093 1.654.095 3.004.095h.774c1.35 0 2.29-.002 3.004-.095c.692-.09 1.066-.256 1.34-.512c.273-.256.463-.618.6-1.302c.14-.706.204-1.644.294-2.992l.46-6.899a.75.75 0 1 1 1.497.1l-.464 6.952c-.085 1.282-.154 2.319-.316 3.132c-.169.845-.455 1.551-1.047 2.104c-.591.554-1.315.793-2.17.904c-.822.108-1.86.108-3.146.108h-.878c-1.286 0-2.324 0-3.146-.108c-.855-.111-1.579-.35-2.17-.904c-.592-.553-.878-1.26-1.047-2.104c-.162-.814-.23-1.85-.316-3.132L4.418 8.55a.75.75 0 0 1 .699-.798Zm5.238-5.502h-.046c-.216 0-.405 0-.583.028a2.25 2.25 0 0 0-1.64 1.183c-.084.16-.143.339-.211.544l-.015.044l-.097.29a1.25 1.25 0 0 1-1.263.91h-3a.75.75 0 1 0 0 1.501h17.001a.75.75 0 0 0 0-1.5H17.41a1.25 1.25 0 0 1-1.173-.91l-.097-.291l-.014-.044c-.069-.205-.128-.384-.211-.544a2.25 2.25 0 0 0-1.641-1.183a3.733 3.733 0 0 0-.583-.028h-3.336Zm-1.21 2.685c-.04.109-.085.214-.137.315h5.984a2.764 2.764 0 0 1-.136-.314l-.04-.114l-.099-.3a3.114 3.114 0 0 0-.133-.368a.75.75 0 0 0-.547-.395a3.114 3.114 0 0 0-.392-.009h-3.29c-.288 0-.348.002-.392.01a.75.75 0 0 0-.547.394c-.02.04-.042.095-.133.369l-.1.3l-.038.112Z"
            clip-rule="evenodd"></path>
    </symbol>



    <!--! Warning dialog -->
    <symbol viewBox="0 0 256 256" id="warning">
        <path
            d="M236.8 188.09L149.35 36.22a24.76 24.76 0 0 0-42.7 0L19.2 188.09a23.51 23.51 0 0 0 0 23.72A24.35 24.35 0 0 0 40.55 224h174.9a24.35 24.35 0 0 0 21.33-12.19a23.51 23.51 0 0 0 .02-23.72ZM120 104a8 8 0 0 1 16 0v40a8 8 0 0 1-16 0Zm8 88a12 12 0 1 1 12-12a12 12 0 0 1-12 12Z">
        </path>
    </symbol>



    <!--! Prompt favorite btn -->
    <symbol viewBox="0 0 24 24" id="favorite">
        <path
            d="m12 21l-1.45-1.3q-2.525-2.275-4.175-3.925T3.75 12.812Q2.775 11.5 2.388 10.4T2 8.15Q2 5.8 3.575 4.225T7.5 2.65q1.3 0 2.475.55T12 4.75q.85-1 2.025-1.55t2.475-.55q2.35 0 3.925 1.575T22 8.15q0 1.15-.388 2.25t-1.362 2.412q-.975 1.313-2.625 2.963T13.45 19.7L12 21Z">
        </path>
    </symbol>



    <!--! Prompt favorite btn -->
    <symbol viewBox="0 0 24 24" id="heart">
        <g transform="translate(467 392)">
            <path class="heart" fill="#AAB8C2"
                d="M29.144 20.773c-.063-.13-4.227-8.67-11.44-2.59C7.63 28.795 28.94 43.256 29.143 43.394c.204-.138 21.513-14.6 11.44-25.213-7.214-6.08-11.377 2.46-11.44 2.59z" />
            <circle class="main-circle" fill="#E2264D" opacity="0" cx="29.5" cy="29.5" r="1.5" />

            <g class="grp7" opacity="0" transform="translate(7 6)">
                <circle class="oval1" fill="#9CD8C3" cx="2" cy="6" r="2" />
                <circle class="oval2" fill="#8CE8C3" cx="5" cy="2" r="2" />
            </g>

            <g class="grp6" opacity="0" transform="translate(0 28)">
                <circle class="oval1" fill="#CC8EF5" cx="2" cy="7" r="2" />
                <circle class="oval2" fill="#91D2FA" cx="3" cy="2" r="2" />
            </g>

            <g class="grp3" opacity="0" transform="translate(52 28)">
                <circle class="oval2" fill="#9CD8C3" cx="2" cy="7" r="2" />
                <circle class="oval1" fill="#8CE8C3" cx="4" cy="2" r="2" />
            </g>

            <g class="grp2" opacity="0" transform="translate(44 6)">
                <circle class="oval2" fill="#CC8EF5" cx="5" cy="6" r="2" />
                <circle class="oval1" fill="#CC8EF5" cx="2" cy="2" r="2" />
            </g>

            <g class="grp5" opacity="0" transform="translate(14 50)">
                <circle class="oval1" fill="#91D2FA" cx="6" cy="5" r="2" />
                <circle class="oval2" fill="#91D2FA" cx="2" cy="2" r="2" />
            </g>

            <g class="grp4" opacity="0" transform="translate(35 50)">
                <circle class="oval1" fill="#F48EA7" cx="6" cy="5" r="2" />
                <circle class="oval2" fill="#F48EA7" cx="2" cy="2" r="2" />
            </g>

            <g class="grp1" opacity="0" transform="translate(24)">
                <circle class="oval1" fill="#9FC7FA" cx="2.5" cy="3" r="2" />
                <circle class="oval2" fill="#9FC7FA" cx="7.5" cy="2" r="2" />
            </g>
        </g>
    </symbol>
</svg>